<?xml version="1.0" standalone="no"?>
<!DOCTYPE svg PUBLIC "-//W3C//DTD SVG 20010904//EN"
 "http://www.w3.org/TR/2001/REC-SVG-20010904/DTD/svg10.dtd">
<svg version="1.0" xmlns="http://www.w3.org/2000/svg"
 width="302.000000pt" height="302.000000pt" viewBox="0 0 302.000000 302.000000"
 preserveAspectRatio="xMidYMid meet">

<g transform="translate(0.000000,302.000000) scale(0.100000,-0.100000)"
fill="#000000" stroke="none">
<path d="M30 2495 l0 -495 80 0 80 0 0 400 0 400 410 0 410 0 0 95 0 95 -490
0 -490 0 0 -495z"/>
<path d="M2010 2895 l0 -95 410 0 410 0 0 -400 0 -400 80 0 80 0 0 495 0 495
-490 0 -490 0 0 -95z"/>
<path d="M550 2140 l0 -320 315 0 315 0 0 320 0 320 -315 0 -315 0 0 -320z
m500 0 l0 -180 -182 2 -183 3 -3 178 -2 177 185 0 185 0 0 -180z"/>
<path d="M740 2135 l0 -135 135 0 135 0 0 135 0 135 -135 0 -135 0 0 -135z"/>
<path d="M1860 2140 l0 -320 315 0 315 0 0 320 0 320 -315 0 -315 0 0 -320z
m500 0 l0 -180 -182 2 -183 3 -3 178 -2 177 185 0 185 0 0 -180z"/>
<path d="M2040 2140 l0 -140 130 0 130 0 0 140 0 140 -130 0 -130 0 0 -140z"/>
<path d="M1250 2355 l0 -75 270 0 270 0 0 75 0 75 -270 0 -270 0 0 -75z"/>
<path d="M1600 2195 l0 -65 95 0 95 0 0 65 0 65 -95 0 -95 0 0 -65z"/>
<path d="M1260 2080 l0 -70 100 0 100 0 0 70 0 70 -100 0 -100 0 0 -70z"/>
<path d="M1650 2005 l0 -35 -60 0 -60 0 0 -90 0 -90 33 0 c19 0 75 3 125 6
l92 7 0 118 0 119 -65 0 -65 0 0 -35z"/>
<path d="M1890 1575 l0 -185 33 0 c17 0 76 -3 130 -7 l97 -6 0 96 0 96 -62 3
-63 3 -3 93 -3 92 -64 0 -65 0 0 -185z"/>
<path d="M590 1645 l0 -75 175 0 175 0 0 -65 0 -65 45 0 45 0 0 -95 0 -95 62
0 61 0 -6 152 c-4 83 -7 189 -7 235 l0 83 -275 0 -275 0 0 -75z"/>
<path d="M1250 1645 l0 -65 80 0 80 0 0 -225 0 -225 -75 0 -75 0 0 -65 0 -65
100 0 100 0 0 45 c0 45 0 45 35 45 l35 0 0 190 0 190 40 0 40 0 0 50 0 50 90
0 90 0 0 70 0 70 -95 0 -95 0 0 -50 0 -51 -77 3 -78 3 -3 48 -3 47 -95 0 -94
0 0 -65z"/>
<path d="M2340 1390 l0 -300 65 0 65 0 0 300 0 300 -65 0 -65 0 0 -300z"/>
<path d="M1250 1340 l0 -90 65 0 65 0 0 90 0 90 -65 0 -65 0 0 -90z"/>
<path d="M580 1320 l0 -70 100 0 100 0 0 70 0 70 -100 0 -100 0 0 -70z"/>
<path d="M1650 1185 l0 -185 60 0 60 0 0 185 0 185 -60 0 -60 0 0 -185z"/>
<path d="M2150 1280 l0 -90 65 0 65 0 0 90 0 90 -65 0 -65 0 0 -90z"/>
<path d="M1920 1180 l0 -90 65 0 65 0 0 90 0 90 -65 0 -65 0 0 -90z"/>
<path d="M550 830 l0 -320 315 0 315 0 0 320 0 320 -315 0 -315 0 0 -320z
m500 0 l0 -180 -182 2 -183 3 -3 178 -2 177 185 0 185 0 0 -180z"/>
<path d="M750 830 l0 -140 130 0 130 0 0 140 0 140 -130 0 -130 0 0 -140z"/>
<path d="M2130 985 l0 -85 -95 0 -95 0 0 -70 0 -70 100 0 100 0 0 60 0 60 60
0 60 0 0 95 0 95 -65 0 -65 0 0 -85z"/>
<path d="M30 515 l0 -495 490 0 490 0 0 70 0 70 -408 2 -407 3 -3 423 -2 422
-80 0 -80 0 0 -495z"/>
<path d="M2830 585 l0 -425 -410 0 -410 0 0 -70 0 -70 490 0 490 0 0 495 0
495 -80 0 -80 0 0 -425z"/>
<path d="M2330 855 l0 -95 60 0 60 0 0 95 0 95 -60 0 -60 0 0 -95z"/>
<path d="M1280 730 l0 -190 60 0 60 0 0 190 0 190 -60 0 -60 0 0 -190z"/>
<path d="M1640 735 l0 -95 65 0 65 0 0 95 0 95 -65 0 -65 0 0 -95z"/>
<path d="M1930 585 l0 -75 270 0 270 0 0 75 0 75 -270 0 -270 0 0 -75z"/>
</g>
</svg>
