<?xml version="1.0" standalone="no"?>
<!DOCTYPE svg PUBLIC "-//W3C//DTD SVG 20010904//EN"
 "http://www.w3.org/TR/2001/REC-SVG-20010904/DTD/svg10.dtd">
<svg version="1.0" xmlns="http://www.w3.org/2000/svg"
 width="261.000000pt" height="288.000000pt" viewBox="0 0 261.000000 288.000000"
 preserveAspectRatio="xMidYMid meet">

<g transform="translate(0.000000,288.000000) scale(0.100000,-0.100000)"
fill="#000000" stroke="none">
<path d="M1100 2774 c0 -16 3 -53 6 -81 7 -53 7 -53 43 -53 20 0 77 -7 128
-15 268 -43 531 -182 730 -384 186 -189 325 -461 355 -695 l12 -96 99 0 100 0
-7 95 c-17 246 -88 462 -214 654 -186 283 -447 470 -787 563 -97 26 -131 31
-287 35 l-178 5 0 -28z"/>
<path d="M1135 2368 c-2 -7 -1 -38 3 -68 8 -61 3 -59 140 -79 238 -36 488
-218 620 -451 41 -73 90 -207 98 -270 l7 -50 74 0 74 0 -6 73 c-15 161 -52
282 -125 407 -160 272 -469 450 -783 450 -69 0 -99 -4 -102 -12z"/>
<path d="M710 2064 c-177 -44 -364 -157 -471 -285 -110 -131 -168 -246 -205
-409 -23 -100 -25 -130 -21 -230 12 -254 108 -464 290 -636 173 -165 378 -245
627 -245 218 0 392 58 560 187 473 363 472 1097 -3 1455 -109 83 -201 126
-335 160 -151 38 -300 39 -442 3z m465 -533 c94 -42 134 -103 135 -205 0 -114
-37 -179 -131 -231 -48 -26 -65 -30 -161 -33 l-108 -4 0 -124 0 -124 -90 0
-90 0 0 368 c0 203 3 372 8 376 4 5 93 6 197 4 170 -4 195 -6 240 -27z"/>
<path d="M907 1423 c-4 -3 -7 -57 -7 -120 l0 -113 51 0 c125 0 179 36 179 121
0 71 -27 97 -110 109 -78 11 -104 12 -113 3z"/>
</g>
</svg>
